#Comment line ignore any data following # character 
#Hierarchical Translation and Rotation (.htr) file 
[Header]	
#Header keywords are followed by a single value 
FileType HTR		#Single word string
DataType HTRS		#Translation followed by rotation and scale data
FileVersion 1		#integer
NumSegments 64		#integer
NumFrames 3		#integer
DataFrameRate 30		#integer, data frame rate in this file
EulerRotationOrder ZYX
CalibrationUnits mm
RotationUnits Degrees
GlobalAxisofGravity Y
BoneLengthAxis Y
ScaleFactor 1.00
[SegmentNames&Hierarchy]
#CHILD	PARENT
Pinger_Root GLOBAL
Pelvis Pinger_Root
L_Hip Pelvis
R_Hip Pelvis
Rear_Leg01 Pelvis
Spine1 Pelvis
L_Leg01 L_Hip
L_Leg02 L_Leg01
L_Leg03 L_Leg02
L_Foot L_Leg03
L_Toe1_01 L_Foot
L_Toe2_01 L_Foot
L_Toe3_01 L_Foot
planeAlignerLeft L_Foot
L_Toe1_02 L_Toe1_01
L_Toe1_03 L_Toe1_02
L_Toe2_02 L_Toe2_01
L_Toe2_03 L_Toe2_02
L_Toe3_02 L_Toe3_01
L_Toe3_03 L_Toe3_02
planeLockWeightLeft planeAlignerLeft
R_Leg01 R_Hip
R_Leg02 R_Leg01
R_Leg03 R_Leg02
R_Foot R_Leg03
planeAlignerRight R_Foot
R_Toe1_01 R_Foot
R_Toe2_01 R_Foot
R_Toe3_01 R_Foot
planeLockWeightRight planeAlignerRight
R_Toe1_02 R_Toe1_01
R_Toe1_03 R_Toe1_02
R_Toe2_02 R_Toe2_01
R_Toe2_03 R_Toe2_02
R_Toe3_02 R_Toe3_01
R_Toe3_03 R_Toe3_02
Rear_Leg02 Rear_Leg01
Rear_Leg03 Rear_Leg02
Rear_Leg04 Rear_Leg03
Rear_Foot Rear_Leg04
planeAlignerCenter Rear_Foot
Rear_Toe1_01 Rear_Foot
Rear_Toe2_01 Rear_Foot
Rear_Toe3_01 Rear_Foot
planeLockWeightCenter planeAlignerCenter
Rear_Toe1_02 Rear_Toe1_01
Rear_Toe1_03 Rear_Toe1_02
Rear_Toe2_02 Rear_Toe2_01
Rear_Toe2_03 Rear_Toe2_02
Rear_Toe3_02 Rear_Toe3_01
Rear_Toe3_03 Rear_Toe3_02
Back_Bone Spine1
Head Spine1
Motor_Bone Back_Bone
Ping_Mechanism Back_Bone
BN_LookIK Head
bottomMouth Head
L_Mouth01 Head
L_mouthFront Head
mouthGun Head
R_Mouth01 Head
R_mouthFront Head
TopMouth Head
weapon_bone Head
[BasePosition]
#SegmentName Tx, Ty, Tz, Rx, Ry, Rz, BoneLength
Pinger_Root 0.000000 0.000000 0.000000 -90.000000 0.000000 0.000000 10.000000 
Pelvis 0.000000 0.000000 0.000000 0.000000 0.000000 0.000000 10.000000 
L_Hip 0.000000 0.000000 0.000000 0.000000 0.000000 0.000000 10.000000 
R_Hip 0.000000 0.000000 0.000000 0.000000 0.000000 0.000000 10.000000 
Rear_Leg01 0.000000 0.000000 0.000000 0.000000 0.000000 0.000000 10.000000 
Spine1 0.000000 0.000000 0.000000 0.000000 0.000000 0.000000 10.000000 
L_Leg01 0.000000 0.000000 0.000000 0.000000 0.000000 0.000000 10.000000 
L_Leg02 0.000000 0.000000 0.000000 0.000000 0.000000 0.000000 10.000000 
L_Leg03 0.000000 0.000000 0.000000 0.000000 0.000000 0.000000 10.000000 
L_Foot 0.000000 0.000000 0.000000 0.000000 0.000000 0.000000 10.000000 
L_Toe1_01 0.000000 0.000000 0.000000 0.000000 0.000000 0.000000 10.000000 
L_Toe2_01 0.000000 0.000000 0.000000 0.000000 0.000000 0.000000 10.000000 
L_Toe3_01 0.000000 0.000000 0.000000 0.000000 0.000000 0.000000 10.000000 
planeAlignerLeft 0.000000 0.000000 0.000000 0.000000 0.000000 0.000000 10.000000 
L_Toe1_02 0.000000 0.000000 0.000000 0.000000 0.000000 0.000000 10.000000 
L_Toe1_03 0.000000 0.000000 0.000000 0.000000 0.000000 0.000000 10.000000 
L_Toe2_02 0.000000 0.000000 0.000000 0.000000 0.000000 0.000000 10.000000 
L_Toe2_03 0.000000 0.000000 0.000000 0.000000 0.000000 0.000000 10.000000 
L_Toe3_02 0.000000 0.000000 0.000000 0.000000 0.000000 0.000000 10.000000 
L_Toe3_03 0.000000 0.000000 0.000000 0.000000 0.000000 0.000000 10.000000 
planeLockWeightLeft 0.000000 0.000000 0.000000 0.000000 0.000000 0.000000 10.000000 
R_Leg01 0.000000 0.000000 0.000000 0.000000 0.000000 0.000000 10.000000 
R_Leg02 0.000000 0.000000 0.000000 0.000000 0.000000 0.000000 10.000000 
R_Leg03 0.000000 0.000000 0.000000 0.000000 0.000000 0.000000 10.000000 
R_Foot 0.000000 0.000000 0.000000 0.000000 0.000000 0.000000 10.000000 
planeAlignerRight 0.000000 0.000000 0.000000 0.000000 0.000000 0.000000 10.000000 
R_Toe1_01 0.000000 0.000000 0.000000 0.000000 0.000000 0.000000 10.000000 
R_Toe2_01 0.000000 0.000000 0.000000 0.000000 0.000000 0.000000 10.000000 
R_Toe3_01 0.000000 0.000000 0.000000 0.000000 0.000000 0.000000 10.000000 
planeLockWeightRight 0.000000 0.000000 0.000000 0.000000 0.000000 0.000000 10.000000 
R_Toe1_02 0.000000 0.000000 0.000000 0.000000 0.000000 0.000000 10.000000 
R_Toe1_03 0.000000 0.000000 0.000000 0.000000 0.000000 0.000000 10.000000 
R_Toe2_02 0.000000 0.000000 0.000000 0.000000 0.000000 0.000000 10.000000 
R_Toe2_03 0.000000 0.000000 0.000000 0.000000 0.000000 0.000000 10.000000 
R_Toe3_02 0.000000 0.000000 0.000000 0.000000 0.000000 0.000000 10.000000 
R_Toe3_03 0.000000 0.000000 0.000000 0.000000 0.000000 0.000000 10.000000 
Rear_Leg02 0.000000 0.000000 0.000000 0.000000 0.000000 0.000000 10.000000 
Rear_Leg03 0.000000 0.000000 0.000000 0.000000 0.000000 0.000000 10.000000 
Rear_Leg04 0.000000 0.000000 0.000000 0.000000 0.000000 0.000000 10.000000 
Rear_Foot 0.000000 0.000000 0.000000 0.000000 0.000000 0.000000 10.000000 
planeAlignerCenter 0.000000 0.000000 0.000000 0.000000 0.000000 0.000000 10.000000 
Rear_Toe1_01 0.000000 0.000000 0.000000 0.000000 0.000000 0.000000 10.000000 
Rear_Toe2_01 0.000000 0.000000 0.000000 0.000000 0.000000 0.000000 10.000000 
Rear_Toe3_01 0.000000 0.000000 0.000000 0.000000 0.000000 0.000000 10.000000 
planeLockWeightCenter 0.000000 0.000000 0.000000 0.000000 0.000000 0.000000 10.000000 
Rear_Toe1_02 0.000000 0.000000 0.000000 0.000000 0.000000 0.000000 10.000000 
Rear_Toe1_03 0.000000 0.000000 0.000000 0.000000 0.000000 0.000000 10.000000 
Rear_Toe2_02 0.000000 0.000000 0.000000 0.000000 0.000000 0.000000 10.000000 
Rear_Toe2_03 0.000000 0.000000 0.000000 0.000000 0.000000 0.000000 10.000000 
Rear_Toe3_02 0.000000 0.000000 0.000000 0.000000 0.000000 0.000000 10.000000 
Rear_Toe3_03 0.000000 0.000000 0.000000 0.000000 0.000000 0.000000 10.000000 
Back_Bone 0.000000 0.000000 0.000000 0.000000 0.000000 0.000000 10.000000 
Head 0.000000 0.000000 0.000000 0.000000 0.000000 0.000000 10.000000 
Motor_Bone 0.000000 0.000000 0.000000 0.000000 0.000000 0.000000 10.000000 
Ping_Mechanism 0.000000 0.000000 0.000000 0.000000 0.000000 0.000000 10.000000 
BN_LookIK 0.000000 0.000000 0.000000 0.000000 0.000000 0.000000 10.000000 
bottomMouth 0.000000 0.000000 0.000000 0.000000 0.000000 0.000000 10.000000 
L_Mouth01 0.000000 0.000000 0.000000 0.000000 0.000000 0.000000 10.000000 
L_mouthFront 0.000000 0.000000 0.000000 0.000000 0.000000 0.000000 10.000000 
mouthGun 0.000000 0.000000 0.000000 0.000000 0.000000 0.000000 10.000000 
R_Mouth01 0.000000 0.000000 0.000000 0.000000 0.000000 0.000000 10.000000 
R_mouthFront 0.000000 0.000000 0.000000 0.000000 0.000000 0.000000 10.000000 
TopMouth 0.000000 0.000000 0.000000 0.000000 0.000000 0.000000 10.000000 
weapon_bone 0.000000 0.000000 0.000000 0.000000 0.000000 0.000000 10.000000 
#Beginning of Data. Separated by tabs
#Fr	Tx	Ty	Tz	Rx	Ry	Rz	SF
[Pinger_Root]
11 0.000000 0.000000 0.000000 -0.000075 -0.000000 -0.000020 0.000000
12 0.000000 0.000000 0.000000 -0.000075 -0.000000 -0.000020 0.000000
13 0.000000 0.000000 0.000000 -0.000075 -0.000000 -0.000020 0.000000
[Pelvis]
11 253.656418 846.381104 3675.570557 -76.924500 -59.802704 92.218002 3780.280518
12 166.664017 587.436035 3725.440430 -79.679428 -57.696465 94.615158 3775.150879
13 67.291794 309.426544 3787.096436 -82.280403 -55.900684 96.685287 3800.312256
[L_Hip]
11 5.766392 125.831482 872.656799 176.551849 -48.646355 100.063576 881.701050
12 5.766392 125.831482 872.656799 -173.295959 -48.391357 86.538788 881.701050
13 5.766392 125.831482 872.656799 -163.696487 -46.597355 73.543221 881.701050
[R_Hip]
11 5.765438 125.836372 -872.654907 35.082424 46.959042 129.532333 881.699829
12 5.765438 125.836372 -872.654907 33.532360 45.311874 132.019257 881.699829
13 5.765438 125.836372 -872.654907 31.927412 43.712769 134.498550 881.699829
[Rear_Leg01]
11 -192.298416 -925.602966 -0.001907 -149.931366 -24.843935 -156.357269 945.367432
12 -192.298416 -925.602966 -0.001907 -151.032501 -25.442106 -158.778641 945.367432
13 -192.298416 -925.602966 -0.001907 -152.151047 -25.780577 -161.028702 945.367432
[Spine1]
11 290.604584 5.007505 0.000477 -18.720095 8.219563 12.972963 290.647736
12 290.604584 5.007505 0.000477 -17.885334 8.814393 11.129174 290.647736
13 290.604584 5.007505 0.000477 -16.909321 9.411959 9.607801 290.647736
[L_Leg01]
11 761.932007 -0.002384 -0.069261 16.155315 -37.606537 -13.116233 761.932068
12 761.932007 -0.002384 -0.069261 4.964436 -41.246876 -6.067629 761.932068
13 761.932007 -0.002384 -0.069261 -5.624349 -42.275368 -0.279970 761.932068
[L_Leg02]
11 1441.140503 -0.000954 -0.000715 5.368121 1.321265 -113.405571 1441.140503
12 1441.140503 -0.000954 -0.000715 3.965309 0.402625 -119.226486 1441.140503
13 1441.140503 -0.000954 -0.000715 2.581269 -0.126003 -120.791771 1441.140503
[L_Leg03]
11 1686.963989 -0.000715 -0.000954 -0.099604 0.054510 136.773911 1686.963989
12 1686.963989 -0.000715 -0.000954 -0.070017 0.036127 129.282562 1686.963989
13 1686.963989 -0.000715 -0.000954 -0.036431 0.017067 120.169312 1686.963989
[L_Foot]
11 3041.570068 -30.715107 11.297464 -0.228521 12.462418 33.590878 3041.746094
12 3041.570068 -30.715107 11.297464 -1.680321 12.132548 36.608170 3041.746094
13 3041.570068 -30.715107 11.297464 -3.592904 12.320123 38.477077 3041.746094
[L_Toe1_01]
11 -188.216690 -224.732346 -21.137953 90.794365 -9.658727 -179.237671 293.899567
12 -188.216690 -224.732346 -21.137953 88.060318 -11.019629 -177.977417 293.899567
13 -188.216690 -224.732346 -21.137953 84.899857 -12.161299 -176.346313 293.899567
[L_Toe2_01]
11 200.746536 -219.926590 148.838394 -79.958740 -22.168354 -52.589970 332.896027
12 200.746536 -219.926590 148.838394 -73.402924 -19.841415 -53.761234 332.896027
13 200.746536 -219.926590 148.838394 -66.989395 -17.405890 -54.630405 332.896027
[L_Toe3_01]
11 188.832520 -219.859131 -191.078659 -95.944962 14.130370 -61.972950 347.140900
12 188.832520 -219.859131 -191.078659 -93.857880 15.045201 -60.478607 347.140900
13 188.832520 -219.859131 -191.078659 -91.581497 16.198776 -58.969654 347.140900
[planeAlignerLeft]
11 123.594345 -578.066650 132.431427 169.161224 -80.528091 90.037025 605.784363
12 117.360519 -585.319641 146.050354 169.027908 -83.268501 90.146378 614.575684
13 111.082451 -596.646484 155.885162 168.950073 -86.369667 90.242920 626.599182
[L_Toe1_02]
11 413.761139 0.000477 0.000000 0.001398 -24.173704 0.001398 413.761139
12 413.761139 0.000477 0.000000 0.001395 -24.496538 0.001395 413.761139
13 413.761139 0.000477 0.000000 0.001393 -24.819374 0.001393 413.761139
[L_Toe1_03]
11 464.317322 0.000358 -0.000089 0.007722 72.516472 0.007722 464.317322
12 464.317322 0.000358 -0.000089 0.006875 70.341866 0.006875 464.317322
13 464.317322 0.000358 -0.000089 0.006127 67.909058 0.006127 464.317322
[L_Toe2_02]
11 342.235809 -0.000477 0.000238 -0.002386 -63.542377 -0.002386 342.235809
12 342.235809 -0.000477 0.000238 -0.002395 -61.937870 -0.002395 342.235809
13 342.235809 -0.000477 0.000238 -0.002406 -59.886021 -0.002406 342.235809
[L_Toe2_03]
11 420.210846 -0.000715 0.000000 -0.001086 66.898933 -0.004655 420.210846
12 420.210846 -0.000715 0.000000 -0.000776 64.152290 -0.004363 420.210846
13 420.210846 -0.000715 0.000000 -0.000488 60.975243 -0.004101 420.210846
[L_Toe3_02]
11 329.270111 0.000954 0.000000 0.001178 -79.844543 0.001178 329.270111
12 329.270111 0.000954 0.000000 0.001178 -80.594688 0.001178 329.270111
13 329.270111 0.000954 0.000000 0.001177 -81.344780 0.001177 329.270111
[L_Toe3_03]
11 439.137451 -0.001907 0.000954 -179.994522 80.886971 -179.991013 439.137451
12 439.137451 -0.001907 0.000954 -179.996353 77.828140 -179.992828 439.137451
13 439.137451 -0.001907 0.000954 -179.997360 75.008278 -179.993835 439.137451
[planeLockWeightLeft]
11 1000.000122 -0.000139 -0.000158 -0.011826 -0.004376 0.005620 1000.000122
12 1000.000122 -0.000153 -0.000157 -0.011826 -0.004376 0.005620 1000.000122
13 1000.000122 -0.000166 -0.000157 -0.011826 -0.004376 0.005620 1000.000122
[R_Leg01]
11 761.455627 -0.001907 -0.000358 152.917526 15.598479 33.622025 761.455688
12 761.455627 -0.001907 -0.000358 156.117004 8.148844 18.163069 761.455688
13 761.455627 -0.001907 -0.000358 162.523651 2.168160 2.621418 761.455688
[R_Leg02]
11 1441.140625 0.000000 -0.000238 -2.212937 -2.213228 -89.525047 1441.140625
12 1441.140625 0.000000 -0.000238 -4.896121 -5.355246 -106.232361 1441.140625
13 1441.140625 0.000000 -0.000238 -7.634571 -6.822944 -116.453690 1441.140625
[R_Leg03]
11 1686.963989 0.000954 0.001431 0.181429 -0.129138 159.085571 1686.963989
12 1686.963989 0.000954 0.001431 0.185850 -0.134968 160.231171 1686.963989
13 1686.963989 0.000954 0.001431 0.173207 -0.122749 156.873672 1686.963989
[R_Foot]
11 3041.560059 -30.531288 -11.204481 12.208906 -28.971348 27.530886 3041.734131
12 3041.560059 -30.531288 -11.204481 10.756645 -29.663017 30.470724 3041.734131
13 3041.560059 -30.531288 -11.204481 8.205972 -27.793383 31.636484 3041.734131
[planeAlignerRight]
11 -253.935211 -470.504852 -288.649292 -36.577168 -71.339035 -64.343941 607.598816
12 -240.433624 -517.706665 -294.670776 -36.577114 -71.338966 -64.343903 642.385742
13 -224.978302 -572.233398 -302.015717 -36.577137 -71.339012 -64.343925 685.039978
[R_Toe1_01]
11 -188.383347 -224.864899 21.052242 77.110344 0.491736 -169.668488 294.101532
12 -188.383347 -224.864899 21.052242 76.982376 0.655841 -167.967422 294.101532
13 -188.383347 -224.864899 21.052242 76.862633 0.890078 -165.842377 294.101532
[R_Toe2_01]
11 200.637817 -220.002121 -148.787384 -92.620560 36.014450 -52.412621 332.857574
12 200.637817 -220.002121 -148.787384 -96.773720 34.058929 -56.499607 332.857574
13 200.637817 -220.002121 -148.787384 -100.786247 31.781536 -60.584126 332.857574
[R_Toe3_01]
11 188.606735 -220.092957 191.126343 -66.772057 -12.687712 -69.784447 347.192566
12 188.606735 -220.092957 191.126343 -63.043755 -9.765904 -72.383759 347.192566
13 188.606735 -220.092957 191.126343 -59.569019 -6.491906 -74.922928 347.192566
[planeLockWeightRight]
11 999.999695 0.000610 -0.000490 -0.011823 -0.004379 -0.000027 999.999695
12 999.999695 0.000610 -0.000476 -0.011823 -0.004379 -0.000027 999.999695
13 999.999695 0.000610 -0.000462 -0.011823 -0.004379 -0.000027 999.999695
[R_Toe1_02]
11 413.762085 0.000477 -0.000119 0.001391 -25.036274 0.001391 413.762085
12 413.762085 0.000477 -0.000119 0.001388 -25.459965 0.001388 413.762085
13 413.762085 0.000477 -0.000119 0.001388 -25.522511 0.001388 413.762085
[R_Toe1_03]
11 464.317810 0.000000 0.001088 0.001686 41.324371 -0.000233 464.317810
12 464.317810 0.000000 0.001088 0.002990 43.774460 0.002990 464.317810
13 464.317810 0.000000 0.001088 0.003100 45.506660 0.003100 464.317810
[R_Toe2_02]
11 342.234741 -0.000954 0.000238 -0.002337 -77.525452 -0.002337 342.234741
12 342.234741 -0.000954 0.000238 -0.002341 -75.885689 -0.002341 342.234741
13 342.234741 -0.000954 0.000238 0.001186 -73.280884 0.001186 342.234741
[R_Toe2_03]
11 420.210846 0.000715 -0.000268 -179.993011 77.390213 -179.996521 420.210846
12 420.210846 0.000715 -0.000268 -179.987488 83.870750 -179.990997 420.210846
13 420.210846 0.000715 -0.000268 -0.030312 87.945473 -0.033809 420.210846
[R_Toe3_02]
11 329.270355 -0.000477 -0.000954 0.001176 -82.050957 0.001176 329.270355
12 329.270355 -0.000477 -0.000954 0.001178 -80.422012 0.001178 329.270355
13 329.270355 -0.000477 -0.000954 0.001180 -77.868347 0.001180 329.270355
[R_Toe3_03]
11 439.137939 0.000238 0.001431 -179.998184 71.586960 -179.994644 439.137939
12 439.137939 0.000238 0.001431 -179.995911 78.733597 -179.992386 439.137939
13 439.137939 0.000238 0.001431 -179.974731 87.561211 -179.971237 439.137939
[Rear_Leg02]
11 1162.777710 -0.029802 0.005960 -4.232083 -12.780674 -63.079693 1162.777710
12 1162.777710 -0.029802 0.005960 -1.756686 -10.141170 -68.717110 1162.777710
13 1162.777710 -0.029802 0.005960 -0.215119 -6.683011 -73.698265 1162.777710
[Rear_Leg03]
11 607.192505 -0.013351 -0.073195 0.007754 0.000804 52.227257 607.192505
12 607.192505 -0.013351 -0.073195 0.006611 -0.001635 55.992599 607.192505
13 607.192505 -0.013351 -0.073195 0.006559 -0.001834 59.454422 607.192505
[Rear_Leg04]
11 995.874512 -0.020504 -0.011921 -0.033873 -0.013025 36.861256 995.874573
12 995.874512 -0.020504 -0.011921 -0.036357 -0.015751 43.151569 995.874573
13 995.874512 -0.020504 -0.011921 -0.039186 -0.018330 49.135345 995.874573
[Rear_Foot]
11 3096.176270 -0.067472 -0.041425 -107.159103 79.167564 95.902092 3096.176270
12 3096.176270 -0.067472 -0.041425 -97.600662 81.621780 100.179543 3096.176270
13 3096.176270 -0.067472 -0.041425 -79.255539 84.229904 113.063301 3096.176270
[planeAlignerCenter]
11 80.808006 -92.561798 -801.434021 12.240769 -0.001473 179.998184 810.798462
12 70.025993 -92.532646 -792.868286 12.240772 -0.001473 179.998184 801.315186
13 58.509197 -92.109070 -783.776978 12.240772 -0.001473 179.998184 791.336731
[Rear_Toe1_01]
11 0.653352 83.966492 -371.173737 -3.102842 42.431118 85.078468 380.553192
12 0.653352 83.966492 -371.173737 -2.591974 41.709930 85.841934 380.553192
13 0.653352 83.966492 -371.173737 -2.099489 40.983730 86.588425 380.553192
[Rear_Toe2_01]
11 178.200760 -294.826019 -362.060547 -6.476207 31.164330 -63.811741 499.765686
12 178.200760 -294.826019 -362.060547 -6.682885 31.223671 -64.404556 499.765686
13 178.200760 -294.826019 -362.060547 -6.890392 31.281174 -64.997993 499.765686
[Rear_Toe3_01]
11 -153.359680 -308.780914 -362.060852 4.561515 33.157093 -106.709946 499.952881
12 -153.359680 -308.780914 -362.060852 4.408670 32.618118 -107.313133 499.952881
13 -153.359680 -308.780914 -362.060852 4.263423 32.077801 -107.911072 499.952881
[planeLockWeightCenter]
11 1000.000488 0.000305 -0.000224 -0.011814 -0.004373 -0.000015 1000.000488
12 1000.000488 0.000305 -0.000216 -0.011814 -0.004373 -0.000015 1000.000488
13 1000.000488 0.000305 -0.000208 -0.011814 -0.004373 -0.000015 1000.000488
[Rear_Toe1_02]
11 379.707825 0.194073 0.000477 -0.000072 -33.181629 0.006053 379.707855
12 379.707825 0.194073 0.000477 0.000205 -33.265091 0.005112 379.707855
13 379.707825 0.194073 0.000477 0.000484 -33.348564 0.004169 379.707855
[Rear_Toe1_03]
11 500.129700 0.165701 0.000119 -0.004306 63.520226 -0.000713 500.129761
12 500.129700 0.165701 0.000119 -0.004446 65.000610 -0.000865 500.129761
13 500.129700 0.165701 0.000119 -0.004605 66.467018 -0.001033 500.129761
[Rear_Toe2_02]
11 340.494507 0.000238 -0.000954 0.001247 -50.569778 0.001247 340.494507
12 340.494507 0.000238 -0.000954 0.001241 -52.209320 0.001241 340.494507
13 340.494507 0.000238 -0.000954 0.001235 -53.848537 0.001235 340.494507
[Rear_Toe2_03]
11 433.103577 0.000000 0.000238 -0.003391 44.863838 0.000396 433.103546
12 433.103577 0.000000 0.000238 -0.000127 46.774120 0.001753 433.103546
13 433.103577 0.000000 0.000238 0.003327 48.684368 0.003327 433.103546
[Rear_Toe3_02]
11 340.494141 -0.000358 -0.000477 -0.002408 -59.433498 -0.002408 340.494171
12 340.494141 -0.000358 -0.000477 -0.002410 -59.172081 -0.002410 340.494171
13 340.494141 -0.000358 -0.000477 -0.002411 -58.910648 -0.002411 340.494171
[Rear_Toe3_03]
11 433.103577 0.001431 -0.000238 -0.000100 55.377342 -0.003763 433.103546
12 433.103577 0.001431 -0.000238 -0.000081 55.057816 -0.003747 433.103546
13 433.103577 0.001431 -0.000238 -0.000063 54.738293 -0.003732 433.103546
[Back_Bone]
11 1312.175781 -701.934692 0.000954 2.790756 -1.457651 -85.682373 1488.125488
12 1312.175781 -701.934692 0.000954 2.790756 -1.457651 -85.682373 1488.125488
13 1312.175781 -701.934692 0.000954 2.790756 -1.457651 -85.682373 1488.125488
[Head]
11 1406.159424 809.709290 0.001431 -1.623609 2.697531 7.613079 1622.625488
12 1406.159424 809.709290 0.001431 -1.623609 2.697531 7.613079 1622.625488
13 1406.159424 809.709290 0.001431 -1.623609 2.697531 7.613079 1622.625488
[Motor_Bone]
11 1158.364380 -417.834747 0.000477 3.394447 -1.301976 -115.970810 1231.419434
12 1158.364380 -417.834747 0.000477 3.394448 -1.301977 -115.970810 1231.419434
13 1158.364380 -417.834747 0.000477 3.394448 -1.301977 -115.970810 1231.419434
[Ping_Mechanism]
11 1339.621338 -515.532654 -20.592075 0.000103 -0.000053 82.120995 1435.542847
12 1348.965210 -519.592590 -28.360264 0.000103 -0.000053 82.120995 1445.851929
13 1356.281006 -522.104797 -35.560200 0.000103 -0.000053 82.120995 1453.738770
[BN_LookIK]
11 193.241119 1380.371704 -0.002861 0.000000 89.965736 -31.038179 1393.832153
12 193.241119 1380.371704 -0.002861 0.000000 89.965736 -31.038179 1393.832153
13 193.241119 1380.371704 -0.002861 0.000000 89.965736 -31.038179 1393.832153
[bottomMouth]
11 -435.092926 615.759399 -0.000954 -0.000022 0.000016 73.527184 753.966492
12 -435.092926 615.759399 -0.000954 -0.000022 0.000016 73.527184 753.966492
13 -435.092926 615.759399 -0.000954 -0.000022 0.000016 73.527184 753.966492
[L_Mouth01]
11 554.440979 7.658243 838.222046 150.204178 23.759130 109.605339 1005.027161
12 554.440979 7.658243 838.222046 150.204178 23.759130 109.605339 1005.027161
13 554.440979 7.658243 838.222046 150.204178 23.759130 109.605339 1005.027161
[L_mouthFront]
11 551.629089 934.514771 339.150421 0.000081 2.804060 79.119301 1136.941284
12 551.629089 934.514771 339.150421 0.000081 2.804060 79.119301 1136.941284
13 551.629089 934.514771 339.150421 0.000081 2.804060 79.119301 1136.941284
[mouthGun]
11 55.332661 1627.420898 0.000000 0.000023 0.000009 -11.038128 1628.361328
12 55.332661 1627.420898 0.000000 0.000023 0.000009 -11.038128 1628.361328
13 55.332661 1627.420898 0.000000 0.000023 0.000009 -11.038128 1628.361328
[R_Mouth01]
11 554.442383 7.659197 -838.223938 29.795891 -23.759109 109.605331 1005.029541
12 554.442383 7.659197 -838.223938 29.795891 -23.759109 109.605331 1005.029541
13 554.442383 7.659197 -838.223938 29.795891 -23.759109 109.605331 1005.029541
[R_mouthFront]
11 551.629089 934.514282 -339.151367 0.000029 -2.803930 79.119133 1136.941162
12 551.629089 934.514282 -339.151367 0.000029 -2.803930 79.119133 1136.941162
13 551.629089 934.514282 -339.151367 0.000029 -2.803930 79.119133 1136.941162
[TopMouth]
11 461.269867 -56.106091 -0.008583 -0.000059 -0.000268 92.025169 464.669525
12 461.269867 -56.106091 -0.008583 -0.000059 -0.000268 92.025169 464.669525
13 461.269867 -56.106091 -0.008583 -0.000059 -0.000268 92.025169 464.669525
[weapon_bone]
11 -987.239868 1448.372803 0.001431 0.000000 89.965736 -31.038221 1752.833740
12 -987.239868 1448.372803 0.001431 0.000000 89.965736 -31.038221 1752.833740
13 -987.239868 1448.372803 0.001431 0.000000 89.965736 -31.038221 1752.833740
